<svg xmlns="http://www.w3.org/2000/svg" viewBox="0 0 100 100">
  <defs>
    <radialGradient id="ringGradient" cx="50%" cy="50%" r="50%">
      <stop offset="0%" stop-color="#ff77a9"/>
      <stop offset="100%" stop-color="#7c4dff"/>
    </radialGradient>
    <linearGradient id="swooshGradient" x1="0%" y1="0%" x2="100%" y2="100%">
      <stop offset="0%" stop-color="#ff4081"/>
      <stop offset="100%" stop-color="#7c4dff"/>
    </linearGradient>
  </defs>
  <circle cx="50" cy="50" r="49" fill="url(#ringGradient)"/>
  <g transform="translate(50 50)">
    <rect x="-2" y="-48" width="4" height="8" rx="1" fill="rgba(255,255,255,0.4)"/>
    <rect x="-2" y="-48" width="4" height="8" rx="1" fill="rgba(255,255,255,0.4)" transform="rotate(30)"/>
    <rect x="-2" y="-48" width="4" height="8" rx="1" fill="rgba(255,255,255,0.4)" transform="rotate(60)"/>
    <rect x="-2" y="-48" width="4" height="8" rx="1" fill="rgba(255,255,255,0.4)" transform="rotate(90)"/>
    <rect x="-2" y="-48" width="4" height="8" rx="1" fill="rgba(255,255,255,0.4)" transform="rotate(120)"/>
    <rect x="-2" y="-48" width="4" height="8" rx="1" fill="rgba(255,255,255,0.4)" transform="rotate(150)"/>
    <rect x="-2" y="-48" width="4" height="8" rx="1" fill="rgba(255,255,255,0.4)" transform="rotate(180)"/>
    <rect x="-2" y="-48" width="4" height="8" rx="1" fill="rgba(255,255,255,0.4)" transform="rotate(210)"/>
    <rect x="-2" y="-48" width="4" height="8" rx="1" fill="rgba(255,255,255,0.4)" transform="rotate(240)"/>
    <rect x="-2" y="-48" width="4" height="8" rx="1" fill="rgba(255,255,255,0.4)" transform="rotate(270)"/>
    <rect x="-2" y="-48" width="4" height="8" rx="1" fill="rgba(255,255,255,0.4)" transform="rotate(300)"/>
    <rect x="-2" y="-48" width="4" height="8" rx="1" fill="rgba(255,255,255,0.4)" transform="rotate(330)"/>
  </g>
  <circle cx="50" cy="50" r="38" fill="#222222"/>
  <path d="M15 60 Q50 20 85 40 L85 60 Q50 80 15 60 Z" fill="url(#swooshGradient)" fill-opacity="0.6"/>
  <text x="50" y="58" text-anchor="middle" font-family="sans-serif" font-size="28" font-weight="700" fill="#ffffff">KPOP</text>
</svg>
